<?xml version="1.0" encoding="UTF-8"?>
<!-- Generated by Pixelmator Pro 3.6.5 -->
<svg width="256" height="256" viewBox="0 0 256 256" xmlns="http://www.w3.org/2000/svg">
    <g id="Gruppe">
        <path id="Pfad" fill="#929292" stroke="none" d="M 105.505859 51.980972 C 101.920296 51.98378 98.865822 54.594269 98.306633 58.134872 L 86.34446 134.004883 C 86.900841 130.461456 89.955315 127.850983 93.543686 127.850983 L 128.598434 127.850983 C 163.877991 127.850983 193.812912 102.114182 199.283981 67.239273 C 199.691437 64.634399 199.92186 62.00705 199.97525 59.371277 C 191.00853 54.670151 180.479462 51.980972 168.938797 51.980972 L 105.505859 51.980972 Z"/>
        <path id="path1" fill="#ffffff" stroke="none" d="M 199.969635 59.374084 C 199.916229 62.009857 199.685806 64.637222 199.278366 67.242081 C 193.807297 102.116989 163.869553 127.85379 128.592819 127.85379 L 93.543686 127.85379 C 89.958122 127.85379 86.900841 130.461456 86.34446 134.00769 L 75.346123 203.726593 L 68.453194 247.461441 C 67.938965 250.687302 70.139191 253.719299 73.365074 254.233536 C 73.674171 254.281296 73.986084 254.306595 74.297997 254.306595 L 112.34539 254.306595 C 115.930954 254.303787 118.98542 251.693298 119.544617 248.152679 L 129.565079 184.587692 C 130.127075 181.044281 133.181549 178.433777 136.769913 178.433777 L 159.171234 178.433777 C 194.450775 178.433777 224.385712 152.696991 229.856796 117.822083 C 233.740204 93.068787 221.275055 70.546646 199.969635 59.376892 L 199.969635 59.374084 Z"/>
        <path id="path2" fill="#d5d5d5" stroke="none" d="M 62.279625 1.406601 C 58.694061 1.406601 55.636784 4.014267 55.080402 7.554871 L 25.224154 196.881439 C 24.659342 200.475433 27.435621 203.726593 31.074572 203.726593 L 75.34893 203.726593 L 86.341652 134.00769 L 98.303825 58.13768 C 98.865822 54.594269 101.917488 51.986588 105.503036 51.98378 L 168.930359 51.98378 C 180.473846 51.98378 191.002914 54.675766 199.966827 59.374084 C 200.585022 27.621078 174.384567 1.406601 138.360367 1.406601 L 62.279625 1.406601 Z"/>
    </g>
</svg>
